#!OML:ASF Y:\EmotionMaleHayes\Project 1\Capture day 1\Session 1\Male1.ASF
:FULLY-SPECIFIED
:DEGREES
95
root -28.5528 17.145 0.177949 27.629 86.4154 25.2066
lowerback 4.30833 0.943734 -4.08753
upperback 1.09212 1.09132 -0.307358
thorax -1.36153 0.563117 1.91632
lowerneck -21.007 2.34281 3.8077
upperneck 25.6954 2.68325 -1.36729
head 12.0154 1.49214 -0.693915
rclavicle -8.69683e-016 -8.94531e-016
rhumerus -32.5756 2.33242 -88.6666
rradius 30.1302
rwrist 5.87916
rhand -12.4544 -26.9101
rfingers 7.12502
rthumb 13.6191 -56.4446
lclavicle -8.69683e-016 -8.94531e-016
lhumerus -29.489 -12.2006 91.6247
lradius 23.1894
lwrist -15.0705
lhand -15.4384 -26.36
lfingers 7.12502
lthumb 10.7419 3.34532
rfemur 8.14528 -3.43906 12.6399
rtibia 3.59569
rfoot -15.3309 -4.32587
rtoes -0.0447478
lfemur 10.6668 0.375909 -16.942
ltibia -2.33666
lfoot -10.7423 8.7009
ltoes 0
96
root -28.5506 17.1474 0.175277 27.6827 86.4421 25.3019
lowerback 4.30691 0.94562 -4.06669
upperback 1.12756 1.09623 -0.301838
thorax -1.32429 0.5645 1.91041
lowerneck -21.0543 2.33337 3.79358
upperneck 25.7339 2.67615 -1.37544
head 12.0394 1.48655 -0.695271
rclavicle -1.06971e-014 1.43125e-014
rhumerus -32.5448 2.36837 -88.6506
rradius 30.144
rwrist 5.82904
rhand -12.449 -26.8488
rfingers 7.12502
rthumb 13.6242 -56.3829
lclavicle -1.06971e-014 1.43125e-014
lhumerus -29.4346 -12.1428 91.6415
lradius 23.1814
lwrist -15.119
lhand -15.9237 -26.3934
lfingers 7.12502
lthumb 10.2737 3.3357
rfemur 8.19648 -3.54252 12.5949
rtibia 3.61676
rfoot -15.3437 -4.23571
rtoes -0.75063
lfemur 10.6907 0.447611 -16.9257
ltibia -2.2991
lfoot -10.7414 8.6383
ltoes 0
97
root -28.5493 17.1467 0.17622 29.5636 86.3568 27.2089
lowerback 4.3094 0.966661 -4.22023
upperback 1.10811 1.11659 -0.343332
thorax -1.34893 0.575882 1.95233
lowerneck -20.9506 2.34377 3.78105
upperneck 25.6982 2.69117 -1.34344
head 12.0047 1.49723 -0.679584
rclavicle -7.1811e-015 4.77083e-015
rhumerus -32.4953 2.23594 -88.5992
rradius 29.9694
rwrist 5.9344
rhand -12.4679 -26.7253
rfingers 7.12502
rthumb 13.6061 -56.2607
lclavicle -7.1811e-015 4.77083e-015
lhumerus -29.4842 -12.1329 91.6923
lradius 23.204
lwrist -15.1375
lhand -15.0268 -26.696
lfingers 7.12502
lthumb 11.1389 2.98835
rfemur 8.24502 -3.30915 12.4911
rtibia 3.59152
rfoot -15.4746 -4.36951
rtoes -0.671336
lfemur 10.8046 0.244317 -17.1894
ltibia -2.46416
lfoot -10.7813 8.84224
ltoes 0
98
root -28.55 17.1465 0.178366 30.7387 86.3108 28.386
lowerback 4.30857 0.968033 -4.32402
upperback 1.07187 1.11248 -0.359856
thorax -1.38706 0.575295 1.99335
lowerneck -20.7715 2.3392 3.77111
upperneck 25.6064 2.69706 -1.34949
head 11.9335 1.49898 -0.68098
rclavicle 4.5969e-015 3.18055e-015
rhumerus -32.4704 2.15266 -88.5623
rradius 29.8133
rwrist 6.05565
rhand -12.5114 -26.5091
rfingers 7.12502
rthumb 13.5642 -56.0473
lclavicle 4.5969e-015 3.18055e-015
lhumerus -29.5479 -12.2513 91.817
lradius 23.246
lwrist -14.9156
lhand -16.2966 -26.8426
lfingers 7.12502
lthumb 9.91405 2.90392
rfemur 8.25453 -3.24014 12.4173
rtibia 3.5802
rfoot -15.4819 -4.47816
rtoes -0.860223
lfemur 10.8402 0.202416 -17.3038
ltibia -2.53988
lfoot -10.8161 8.87521
ltoes 0
99
root -28.5519 17.146 0.178572 31.0292 86.3523 28.6729
lowerback 4.27665 0.939996 -4.24016
upperback 1.09514 1.08093 -0.40586
thorax -1.34079 0.558267 1.90158
lowerneck -20.8077 2.33121 3.76324
upperneck 25.6432 2.67217 -1.29648
head 11.9534 1.49432 -0.66345
rclavicle -7.3923e-015 -6.95746e-015
rhumerus -32.3905 2.05317 -88.6005
rradius 29.8027
rwrist 6.13181
rhand -12.4147 -26.4172
rfingers 7.12502
rthumb 13.6573 -55.9491
lclavicle -7.3923e-015 -6.95746e-015
lhumerus -29.4887 -12.4416 91.8649
lradius 23.3127
lwrist -14.6717
lhand -15.1389 -26.7303
lfingers 7.12502
lthumb 11.0308 2.95986
rfemur 8.25976 -3.19527 12.4537
rtibia 3.56293
rfoot -15.4926 -4.64429
rtoes -0.325079
lfemur 10.6258 0.949421 -17.0322
ltibia -2.14722
lfoot -10.7143 8.12783
ltoes 0
100
root -28.5545 17.1453 0.179611 30.3401 86.435 28.0011
lowerback 4.35852 0.942037 -4.22447
upperback 1.08742 1.08042 -0.345561
thorax -1.39537 0.558996 1.95352
lowerneck -20.886 2.32232 3.80714
upperneck 25.7354 2.67577 -1.40263
head 12.0072 1.48678 -0.709067
rclavicle -5.479e-015 1.12313e-014
rhumerus -32.3889 2.11677 -88.5574
rradius 29.87
rwrist 6.02598
rhand -12.3284 -26.5187
rfingers 7.12502
rthumb 13.7405 -56.045
lclavicle -5.479e-015 1.12313e-014
lhumerus -29.4327 -12.592 92.0269
lradius 23.3161
lwrist -14.4217
lhand -15.0211 -26.7539
lfingers 7.12502
lthumb 11.1444 2.9302
rfemur 8.29694 -3.05852 12.6053
rtibia 3.52083
rfoot -15.5521 -4.70008
rtoes 0.891144
lfemur 10.4997 1.37507 -16.7747
ltibia -1.89024
lfoot -10.5725 7.69594
ltoes 0
101
root -28.5554 17.1462 0.181779 28.3644 86.4893 26.0626
lowerback 4.40856 0.970875 -4.0901
upperback 1.10796 1.12312 -0.334855
thorax -1.40278 0.57983 1.88621
lowerneck -20.9356 2.31993 3.87562
upperneck 25.7431 2.64935 -1.41501
head 12.0207 1.47965 -0.729133
rclavicle -4.72114e-016 -1.19271e-015
rhumerus -32.3572 2.13412 -88.6147
rradius 29.9015
rwrist 5.92699
rhand -12.3622 -26.6734
rfingers 7.12502
rthumb 13.708 -56.2019
lclavicle -4.72114e-016 -1.19271e-015
lhumerus -29.4885 -12.8226 92.0837
lradius 23.5653
lwrist -14.1163
lhand -15.0298 -26.4861
lfingers 7.12502
lthumb 11.136 3.19837
rfemur 8.32186 -3.13163 12.7481
rtibia 3.53485
rfoot -15.5222 -4.533
rtoes 1.00274
lfemur 10.56 1.33694 -16.6083
ltibia -1.92001
lfoot -10.5512 7.74128
ltoes 0
102
root -28.5541 17.147 0.181777 27.6806 86.4933 25.4059
lowerback 4.42443 0.969534 -4.05205
upperback 1.10926 1.12246 -0.313874
thorax -1.41 0.579455 1.88628
lowerneck -20.9406 2.31141 3.77114
upperneck 25.7624 2.64721 -1.32408
head 12.026 1.48079 -0.677697
rclavicle -5.11871e-015 -8.34896e-015
rhumerus -32.3562 2.20751 -88.6248
rradius 29.936
rwrist 5.89465
rhand -12.3472 -26.6349
rfingers 7.12502
rthumb 13.7224 -56.1625
lclavicle -5.11871e-015 -8.34896e-015
lhumerus -29.4824 -12.7445 92.1076
lradius 23.6194
lwrist -14.1424
lhand -15.3717 -26.363
lfingers 7.12502
lthumb 10.8063 3.33903
rfemur 8.34088 -3.86189 12.523
rtibia 3.59446
rfoot -15.2976 -3.89508
rtoes -0.181271
lfemur 10.6913 0.884744 -16.7213
ltibia -2.10709
lfoot -10.7082 8.14114
ltoes 0
103
root -28.5553 17.1465 0.180834 28.093 86.5192 25.7926
lowerback 4.41635 0.941264 -4.06803
upperback 1.08684 1.08385 -0.285945
thorax -1.42695 0.560666 1.92614
lowerneck -20.8871 2.30417 3.69135
upperneck 25.7505 2.66457 -1.31399
head 12.0096 1.48246 -0.658142
rclavicle -5.80203e-015 -7.55382e-015
rhumerus -32.329 2.25041 -88.5804
rradius 29.9095
rwrist 5.94102
rhand -12.369 -26.3821
rfingers 7.12502
rthumb 13.7014 -55.9111
lclavicle -5.80203e-015 -7.55382e-015
lhumerus -29.5032 -12.6421 92.1926
lradius 23.6545
lwrist -14.2335
lhand -16.1097 -26.2959
lfingers 7.12502
lthumb 10.0943 3.44203
rfemur 8.32974 -3.34685 12.7128
rtibia 3.54134
rfoot -15.4449 -4.4999
rtoes -1.49864
lfemur 10.8123 0.0833783 -17.0019
ltibia -2.43515
lfoot -10.854 8.83049
ltoes 0
